<svg id="Capa_1" enable-background="new 0 0 512 512" height="512" viewBox="0 0 512 512" width="512" xmlns="http://www.w3.org/2000/svg"><g><path d="m451 495.5c.3 4.2-1.199 8.399-3.9 11.7-2.999 3-6.9 4.8-11.1 4.8h-360c-4.2 0-8.101-1.8-11.1-4.799-2.701-3.301-4.2-7.5-3.9-11.7l30-331c.901-7.5 7.2-13.5 15-13.5h180l15 30 15-30h90c7.8 0 14.099 6 15 13.5z" fill="#ff7f40"/><path d="m451 495.5c.3 4.2-1.199 8.399-3.9 11.7-2.999 3-6.9 4.8-11.1 4.8h-180v-361h30l15 30 15-30h90c7.8 0 14.099 6 15 13.5z" fill="#f25a3c"/><g><path d="m136 120v105.655c0 8.161 6.374 15.101 14.532 15.339 8.622.25 15.468-6.438 15.468-14.994v-106c0-49.706 40.294-90 90-90 49.706 0 90 40.294 90 90v105.655c0 8.161 6.374 15.101 14.532 15.339 8.622.25 15.468-6.438 15.468-14.994v-106c0-66.274-53.726-120-120-120-66.274 0-120 53.726-120 120z" fill="#eef9fb"/></g><path d="m256 30c49.706 0 90 40.294 90 90v105.655c0 8.161 6.374 15.102 14.531 15.339 8.623.25 15.469-6.438 15.469-14.994v-106c0-66.274-53.726-120-120-120z" fill="#d5f0fb"/><g fill="#ffd321"><path d="m286 151v105c0 8.291 6.709 15 15 15s15-6.709 15-15v-105z"/><path d="m341.605 275.395-30-30c-5.859-5.859-15.352-5.859-21.211 0l-19.394 19.394-10.605 10.605c-2.813 2.813-4.395 6.622-4.395 10.606v90c0 8.291 6.709 15 15 15h60c8.291 0 15-6.709 15-15v-90c0-3.984-1.582-7.793-4.395-10.605z"/></g></g></svg>